<?xml version="1.0" encoding="utf-8"?>
<svg viewBox="0 0 315 110" xmlns="http://www.w3.org/2000/svg">
  <defs>
    <linearGradient gradientUnits="userSpaceOnUse" x1="79.034" y1="14.123" x2="79.034" y2="95.228" id="gradient-1" gradientTransform="matrix(0.957081, 0.957081, -0.957081, 0.957081, 54.047071, -73.091268)">
      <stop offset="0" style="stop-opacity: 0.75; stop-color: rgb(0, 128, 183);"/>
      <stop offset="1" style="stop-color: rgb(0, 50, 69);"/>
    </linearGradient>
    <linearGradient gradientUnits="userSpaceOnUse" x1="81.28" y1="15.006" x2="81.28" y2="99.271" id="gradient-0" gradientTransform="matrix(-1.305873, 0, 0, -1.305873, 161.33016, 129.984981)">
      <stop offset="0" style="stop-color: rgb(118, 234, 255);"/>
      <stop offset="1" style="stop-color: rgb(190, 255, 167);"/>
    </linearGradient>
  </defs>
  <rect x="37.067" y="14.123" width="81.105" height="81.105" style="stroke-linecap: square; stroke-width: 50px; fill: url('#gradient-1');" rx="6.346" ry="6.346" transform="matrix(0.707107, -0.707107, 0.707107, 0.707107, -27.136322, 71.223869)"/>
  <g transform="matrix(1.190833, 0, 0, 1.190833, -10.252131, -155.069336)" style="">
    <path d="M 172.417 152.247 L 184.878 152.247 L 184.878 199.323 C 184.878 206.972 182.356 212.807 177.312 216.829 C 172.269 220.851 166.186 222.862 159.065 222.862 C 153.724 222.862 149.027 221.84 144.972 219.796 C 140.917 217.752 137.802 214.752 135.626 210.796 L 146.505 204.565 C 149.01 209.18 153.329 211.488 159.461 211.488 C 163.483 211.488 166.648 210.433 168.955 208.323 C 171.263 206.213 172.417 203.213 172.417 199.323 L 172.417 193.983 C 168.659 198.994 163.384 201.499 156.593 201.499 C 149.604 201.499 143.752 199.043 139.038 194.131 C 134.324 189.219 131.967 183.236 131.967 176.181 C 131.967 169.192 134.341 163.225 139.088 158.28 C 143.835 153.335 149.67 150.862 156.593 150.862 C 163.384 150.862 168.659 153.368 172.417 158.379 L 172.417 152.247 Z M 148.631 185.922 C 148.631 185.922 149.282 186.557 150.585 187.826 C 151.887 189.095 154.549 189.73 158.571 189.73 C 162.593 189.73 165.906 188.461 168.51 185.922 C 171.115 183.384 172.417 180.137 172.417 176.181 C 172.417 172.291 171.115 169.077 168.51 166.538 C 165.906 163.999 162.593 162.73 158.571 162.73 C 154.549 162.73 151.236 163.999 148.631 166.538 C 146.027 169.077 144.725 172.291 144.725 176.181 C 144.725 180.137 146.027 183.384 148.631 185.922 Z" style="fill: rgb(8, 52, 71);"/>
    <path d="M 202.608 160.752 C 203.795 157.587 209.668 151.805 217.641 152.201 L 217.641 166.443 C 209.115 166.443 202.608 177.313 202.608 182.06 L 202.608 201.697 L 189.85 201.697 L 189.85 152.247 L 202.608 152.247 L 202.608 160.752 Z" style="fill: rgb(8, 52, 71);"/>
    <path d="M 228.986 146.313 C 226.877 146.313 225.047 145.538 223.497 143.989 C 221.948 142.44 221.173 140.61 221.173 138.5 C 221.173 136.39 221.948 134.544 223.497 132.961 C 225.047 131.379 226.877 130.588 228.986 130.588 C 231.162 130.588 233.025 131.379 234.574 132.961 C 236.124 134.544 236.898 136.39 236.898 138.5 C 236.898 140.61 236.124 142.44 234.574 143.989 C 233.025 145.538 231.162 146.313 228.986 146.313 Z M 222.657 201.697 L 222.657 152.247 L 235.415 152.247 L 235.415 201.697 L 222.657 201.697 Z" style="fill: rgb(8, 52, 71);"/>
    <path d="M 272.97 164.511 L 261.795 164.511 L 261.795 185.082 C 261.795 186.796 262.224 188.049 263.08 188.84 C 263.938 189.631 265.191 190.076 266.839 190.175 C 268.487 190.274 270.531 190.257 272.97 190.126 L 272.97 201.697 C 264.202 202.686 258.021 201.861 254.427 199.224 C 250.834 196.587 249.037 191.873 249.037 185.082 L 249.037 164.511 L 240.432 164.511 L 240.432 152.247 L 249.037 152.247 L 249.037 142.258 L 261.795 138.401 L 261.795 152.247 L 272.97 152.247 L 272.97 164.511 Z" style="fill: rgb(8, 52, 71);"/>
  </g>
  <path d="M 1.98 50.854 L 7.277 45.557 L 43.889 82.17 C 43.462 83.183 43.224 84.296 43.224 85.466 C 43.224 90.138 47.012 93.926 51.684 93.927 C 56.357 93.927 60.144 90.138 60.144 85.466 C 60.144 80.792 56.357 77.006 51.684 77.006 C 50.702 77.006 49.761 77.173 48.884 77.479 L 12.12 40.714 L 24.008 28.826 L 37.9 42.718 C 37.565 43.625 37.385 44.606 37.385 45.63 C 37.385 50.302 41.174 54.09 45.845 54.09 C 46.868 54.09 47.849 53.909 48.757 53.576 L 60.618 65.439 C 60.19 66.452 59.953 67.565 59.953 68.735 C 59.954 73.407 63.742 77.195 68.413 77.195 C 73.086 77.195 76.873 73.406 76.873 68.735 C 76.873 64.061 73.086 60.274 68.413 60.274 C 67.433 60.274 66.49 60.441 65.614 60.749 L 53.684 48.819 C 54.085 47.834 54.306 46.759 54.306 45.63 C 54.306 40.957 50.519 37.169 45.845 37.169 C 44.719 37.169 43.641 37.39 42.657 37.79 L 28.85 23.984 L 41.009 11.825 L 54.784 25.6 C 54.355 26.613 54.116 27.727 54.116 28.896 C 54.116 33.569 57.906 37.358 62.576 37.358 C 67.251 37.358 71.039 33.569 71.039 28.896 C 71.039 24.224 67.251 20.437 62.576 20.437 C 61.523 20.437 60.514 20.628 59.584 20.981 L 45.718 7.116 L 50.693 2.142 C 53.078 -0.243 56.945 -0.243 59.33 2.142 L 108.042 50.854 C 110.427 53.24 110.427 57.106 108.042 59.493 L 59.33 108.205 C 56.945 110.59 53.078 110.59 50.693 108.205 L 1.98 59.493 C -0.406 57.106 -0.406 53.24 1.98 50.854 Z" style="stroke-linecap: square; stroke-width: 50px; fill: url('#gradient-0');"/>
</svg>